RobotoSerifMicroWide-Regular03ip.ufo
<glyph name="nine" format="2">
  <advance width="692"/>
  <unicode hex="0039"/>
  <outline>
    <contour>
      <point x="117.0" y="-38.0" type="line"/>
      <point x="380.0" y="-15.0"/>
      <point x="527.0" y="56.0"/>
      <point x="527.0" y="344.0" type="curve" smooth="yes"/>
      <point x="527.0" y="519.0"/>
      <point x="455" y="585"/>
      <point x="328.0" y="585.0" type="curve" smooth="yes"/>
      <point x="200.0" y="585.0"/>
      <point x="154.0" y="502.0"/>
      <point x="154.0" y="403.0" type="curve" smooth="yes"/>
      <point x="154.0" y="300.0"/>
      <point x="198.0" y="239.0"/>
      <point x="312.0" y="239.0" type="curve" smooth="yes"/>
      <point x="411.0" y="239.0"/>
      <point x="476.0" y="267.0"/>
      <point x="554.0" y="398.0" type="curve"/>
      <point x="555.0" y="356.0" type="line"/>
      <point x="494.0" y="234.0"/>
      <point x="408" y="181"/>
      <point x="296.0" y="181.0" type="curve" smooth="yes"/>
      <point x="141.0" y="181"/>
      <point x="60.0" y="259.0"/>
      <point x="60.0" y="403.0" type="curve" smooth="yes"/>
      <point x="60" y="542.0"/>
      <point x="155.0" y="649.0"/>
      <point x="330.0" y="649.0" type="curve" smooth="yes"/>
      <point x="517.0" y="649.0"/>
      <point x="618.0" y="553.0"/>
      <point x="619.0" y="344.0" type="curve" smooth="yes"/>
      <point x="619.0" y="45.0"/>
      <point x="440.0" y="-74.0"/>
      <point x="124.0" y="-101.0" type="curve"/>
    </contour>
  </outline>
</glyph>
<glyph name="registered" format="2">
  <advance width="955"/>
  <unicode hex="00AE"/>
  <outline>
    <contour>
      <point x="477" y="21" type="curve" smooth="yes"/>
      <point x="258" y="21"/>
      <point x="134" y="148"/>
      <point x="134" y="355" type="curve" smooth="yes"/>
      <point x="134" y="562"/>
      <point x="258" y="689"/>
      <point x="477" y="689" type="curve" smooth="yes"/>
      <point x="696" y="689"/>
      <point x="821" y="562"/>
      <point x="821" y="355" type="curve" smooth="yes"/>
      <point x="821" y="148"/>
      <point x="696" y="21"/>
    </contour>
    <contour>
      <point x="477" y="-28" type="curve" smooth="yes"/>
      <point x="726" y="-28"/>
      <point x="881" y="118"/>
      <point x="881" y="355" type="curve" smooth="yes"/>
      <point x="881" y="592"/>
      <point x="726" y="738"/>
      <point x="477" y="738" type="curve" smooth="yes"/>
      <point x="229" y="738"/>
      <point x="74" y="592"/>
      <point x="74" y="355" type="curve" smooth="yes"/>
      <point x="74" y="118"/>
      <point x="229" y="-28"/>
    </contour>
    <contour>
      <point x="310" y="153" type="line"/>
      <point x="498" y="153" type="line"/>
      <point x="498" y="201" type="line"/>
      <point x="487" y="201" type="line" smooth="yes"/>
      <point x="459" y="201"/>
      <point x="433.0" y="202.0"/>
      <point x="433" y="206" type="curve" smooth="yes"/>
      <point x="433" y="322" type="line"/>
      <point x="516" y="322" type="line" smooth="yes"/>
      <point x="621.0" y="322.0"/>
      <point x="671" y="371"/>
      <point x="671" y="438" type="curve" smooth="yes"/>
      <point x="671" y="509"/>
      <point x="625.0" y="552.0"/>
      <point x="517" y="552" type="curve" smooth="yes"/>
      <point x="310" y="552" type="line"/>
      <point x="310" y="504" type="line"/>
      <point x="316" y="504" type="line" smooth="yes"/>
      <point x="344" y="504"/>
      <point x="365.0" y="500.0"/>
      <point x="365" y="484" type="curve" smooth="yes"/>
      <point x="365" y="220" type="line" smooth="yes"/>
      <point x="365" y="205"/>
      <point x="344" y="201"/>
      <point x="316" y="201" type="curve" smooth="yes"/>
      <point x="310" y="201" type="line"/>
    </contour>
    <contour>
      <point x="513" y="503" type="line" smooth="yes"/>
      <point x="571.0" y="503.0"/>
      <point x="599" y="485"/>
      <point x="599" y="436" type="curve" smooth="yes"/>
      <point x="599" y="387"/>
      <point x="571.0" y="366.0"/>
      <point x="513" y="366" type="curve" smooth="yes"/>
      <point x="433" y="366" type="line"/>
      <point x="433" y="503" type="line"/>
    </contour>
    <contour>
      <point x="507" y="338" type="line"/>
      <point x="596" y="156" type="line"/>
      <point x="701" y="156" type="line"/>
      <point x="701" y="201" type="line"/>
      <point x="685" y="201" type="line" smooth="yes"/>
      <point x="658.0" y="201.0"/>
      <point x="649" y="205"/>
      <point x="638" y="225" type="curve" smooth="yes"/>
      <point x="572" y="350" type="line"/>
    </contour>
  </outline>
</glyph>
<glyph name="germandbls" format="2">
  <advance width="802"/>
  <unicode hex="00DF"/>
  <outline>
    <contour>
      <point x="75" y="565" type="line"/>
      <point x="75" y="503" type="line"/>
      <point x="235" y="503" type="line"/>
      <point x="235" y="565" type="line"/>
    </contour>
    <contour>
      <point x="438" y="436" type="line"/>
      <point x="576" y="442"/>
      <point x="689" y="490"/>
      <point x="689" y="624" type="curve" smooth="yes"/>
      <point x="689" y="727"/>
      <point x="596" y="790"/>
      <point x="461" y="790" type="curve" smooth="yes"/>
      <point x="325.0" y="790.0"/>
      <point x="198" y="718"/>
      <point x="198" y="559" type="curve" smooth="yes"/>
      <point x="198" y="126" type="line" smooth="yes"/>
      <point x="198.0" y="66.0"/>
      <point x="167.0" y="50.0"/>
      <point x="111" y="50" type="curve" smooth="yes"/>
      <point x="75" y="50" type="line"/>
      <point x="75" y="0" type="line"/>
      <point x="286" y="0" type="line"/>
      <point x="286" y="559" type="line" smooth="yes"/>
      <point x="286.0" y="677.0"/>
      <point x="356" y="732"/>
      <point x="460" y="732" type="curve" smooth="yes"/>
      <point x="550.0" y="732.0"/>
      <point x="601" y="691"/>
      <point x="601" y="603" type="curve" smooth="yes"/>
      <point x="601.0" y="499.0"/>
      <point x="540" y="473"/>
      <point x="418" y="465" type="curve"/>
      <point x="418" y="401" type="line"/>
      <point x="420" y="401" type="line" smooth="yes"/>
      <point x="590" y="401"/>
      <point x="674" y="341"/>
      <point x="674" y="201" type="curve" smooth="yes"/>
      <point x="674" y="81"/>
      <point x="609" y="49"/>
      <point x="518" y="49" type="curve" smooth="yes"/>
      <point x="487" y="49"/>
      <point x="459" y="52"/>
      <point x="418" y="61" type="curve"/>
      <point x="418" y="0" type="line"/>
      <point x="457" y="-7"/>
      <point x="490" y="-10"/>
      <point x="523" y="-10" type="curve" smooth="yes"/>
      <point x="650" y="-10"/>
      <point x="768" y="40"/>
      <point x="768" y="207" type="curve" smooth="yes"/>
      <point x="768" y="354"/>
      <point x="659" y="426"/>
      <point x="458" y="438" type="curve"/>
      <point x="535" y="414" type="line"/>
      <point x="535" y="461" type="line"/>
    </contour>
  </outline>
</glyph>
<glyph name="tbar" format="2">
  <advance width="503"/>
  <unicode hex="0167"/>
  <outline>
    <contour>
      <point x="22" y="274" type="line"/>
      <point x="446" y="274" type="line"/>
      <point x="446" y="335" type="line"/>
      <point x="22" y="335" type="line"/>
    </contour>
    <component base="t"/>
  </outline>
</glyph>
<glyph name="quoteright" format="2">
  <advance width="315"/>
  <unicode hex="2019"/>
  <outline>
    <contour>
      <point x="99" y="463" type="line"/>
      <point x="206" y="505"/>
      <point x="260" y="577"/>
      <point x="260" y="675" type="curve" smooth="yes"/>
      <point x="260" y="752"/>
      <point x="229" y="785"/>
      <point x="171" y="785" type="curve" smooth="yes"/>
      <point x="117" y="785"/>
      <point x="91" y="754"/>
      <point x="91" y="709" type="curve" smooth="yes"/>
      <point x="91" y="665"/>
      <point x="116" y="640"/>
      <point x="158" y="640" type="curve" smooth="yes"/>
      <point x="192" y="640"/>
      <point x="222" y="656"/>
      <point x="228" y="684" type="curve"/>
      <point x="217" y="687"/>
      <point x="196" y="678"/>
      <point x="196" y="663" type="curve" smooth="yes"/>
      <point x="196" y="587"/>
      <point x="149" y="549"/>
      <point x="72" y="519" type="curve"/>
    </contour>
  </outline>
</glyph>
<glyph name="guilsinglleft" format="2">
  <advance width="484"/>
  <unicode hex="2039"/>
  <outline>
    <contour>
      <point x="159" y="244" type="line"/>
      <point x="414" y="505" type="line"/>
      <point x="329" y="505" type="line"/>
      <point x="95" y="311" type="line"/>
      <point x="95" y="259" type="line"/>
      <point x="329" y="65" type="line"/>
      <point x="414" y="65" type="line"/>
      <point x="160" y="322" type="line"/>
    </contour>
  </outline>
</glyph>
<glyph name="uni25C3" format="2">
  <advance width="607"/>
  <unicode hex="25C3"/>
  <outline>
    <contour>
      <point x="470" y="535" type="line"/>
      <point x="74" y="277" type="line"/>
      <point x="470" y="20" type="line"/>
    </contour>
    <contour>
      <point x="411" y="450" type="line"/>
      <point x="411" y="105" type="line"/>
      <point x="428" y="112" type="line"/>
      <point x="158" y="283" type="line"/>
      <point x="158" y="272" type="line"/>
      <point x="428" y="443" type="line"/>
    </contour>
  </outline>
</glyph>
<glyph name="Euro.proportional" format="2">
  <advance width="822"/>
  <outline>
    <contour>
      <point x="47" y="286" type="line"/>
      <point x="47" y="227" type="line"/>
      <point x="595" y="227" type="line"/>
      <point x="595" y="286" type="line"/>
    </contour>
    <contour>
      <point x="47" y="465" type="line"/>
      <point x="47" y="406" type="line"/>
      <point x="627" y="406" type="line"/>
      <point x="627" y="465" type="line"/>
    </contour>
    <contour>
      <point x="256" y="355" type="curve" smooth="yes"/>
      <point x="256" y="575"/>
      <point x="350" y="670"/>
      <point x="532" y="670" type="curve" smooth="yes"/>
      <point x="601.0" y="670.0"/>
      <point x="664" y="658"/>
      <point x="707" y="643" type="curve"/>
      <point x="705" y="650"/>
      <point x="698" y="675"/>
      <point x="670" y="674" type="curve"/>
      <point x="670" y="563" type="line"/>
      <point x="750" y="563" type="line"/>
      <point x="750" y="704" type="line"/>
      <point x="720" y="716"/>
      <point x="631" y="735"/>
      <point x="533" y="735" type="curve" smooth="yes"/>
      <point x="297.0" y="735.0"/>
      <point x="164" y="601"/>
      <point x="164" y="355" type="curve" smooth="yes"/>
      <point x="164" y="86"/>
      <point x="293" y="-25"/>
      <point x="490" y="-25" type="curve" smooth="yes"/>
      <point x="651" y="-25"/>
      <point x="747" y="48"/>
      <point x="790" y="162" type="curve"/>
      <point x="726" y="187" type="line"/>
      <point x="690" y="105"/>
      <point x="628" y="40"/>
      <point x="497" y="40" type="curve" smooth="yes"/>
      <point x="344" y="40"/>
      <point x="256" y="121"/>
    </contour>
  </outline>
</glyph>
<glyph name="acute.uc" format="2">
  <advance width="530"/>
  <anchor x="218" y="740" name="_top"/>
  <outline>
    <contour>
      <point x="276" y="921" type="curve" smooth="yes"/>
      <point x="162" y="818" type="line"/>
      <point x="162" y="793" type="line"/>
      <point x="201" y="793" type="line"/>
      <point x="344" y="856" type="line" smooth="yes"/>
      <point x="378" y="871"/>
      <point x="405" y="891"/>
      <point x="405" y="920" type="curve" smooth="yes"/>
      <point x="405" y="943"/>
      <point x="387" y="969"/>
      <point x="355" y="969" type="curve" smooth="yes"/>
      <point x="322" y="969"/>
      <point x="302" y="944"/>
    </contour>
  </outline>
</glyph>
<glyph name="blackcircle" format="2">
  <advance width="617"/>
  <outline>
    <contour>
      <point x="309" y="80" type="curve" smooth="yes"/>
      <point x="452" y="80"/>
      <point x="543" y="177"/>
      <point x="543" y="304" type="curve" smooth="yes"/>
      <point x="543" y="431"/>
      <point x="452" y="528"/>
      <point x="309" y="528" type="curve" smooth="yes"/>
      <point x="165" y="528"/>
      <point x="74" y="431"/>
      <point x="74" y="304" type="curve" smooth="yes"/>
      <point x="74" y="177"/>
      <point x="165" y="80"/>
    </contour>
  </outline>
</glyph>
<glyph name="blackuppointingtriangle" format="2">
  <advance width="663"/>
  <outline>
    <contour>
      <point x="58" y="91" type="line"/>
      <point x="605" y="91" type="line"/>
      <point x="331" y="464" type="line"/>
    </contour>
  </outline>
</glyph>
<glyph name="braceleft.uc" format="2">
  <advance width="448"/>
  <outline>
    <contour>
      <point x="352" y="221" type="curve" smooth="yes"/>
      <point x="352" y="274"/>
      <point x="307" y="300"/>
      <point x="151" y="319" type="curve"/>
      <point x="151" y="336" type="line"/>
      <point x="307" y="355"/>
      <point x="352" y="381"/>
      <point x="352" y="434" type="curve" smooth="yes"/>
      <point x="352" y="522"/>
      <point x="206" y="525"/>
      <point x="206" y="620" type="curve" smooth="yes"/>
      <point x="206" y="681"/>
      <point x="254" y="696"/>
      <point x="396" y="693" type="curve"/>
      <point x="391" y="749" type="line"/>
      <point x="237" y="762"/>
      <point x="115" y="731"/>
      <point x="115" y="620" type="curve" smooth="yes"/>
      <point x="115" y="506"/>
      <point x="239" y="472"/>
      <point x="292" y="412" type="curve"/>
      <point x="299" y="430" type="line"/>
      <point x="65" y="361" type="line"/>
      <point x="65" y="294" type="line"/>
      <point x="299" y="225" type="line"/>
      <point x="292" y="236" type="line"/>
      <point x="239" y="176"/>
      <point x="115" y="148"/>
      <point x="115" y="35" type="curve" smooth="yes"/>
      <point x="115" y="-78"/>
      <point x="237" y="-107"/>
      <point x="391" y="-94" type="curve"/>
      <point x="396" y="-38" type="line"/>
      <point x="254" y="-41"/>
      <point x="206" y="-26"/>
      <point x="206" y="35" type="curve" smooth="yes"/>
      <point x="206" y="130"/>
      <point x="352" y="133"/>
    </contour>
  </outline>
</glyph>
<glyph name="cedi.proportional" format="2">
  <advance width="744"/>
  <outline>
    <contour>
      <point x="427" y="700" type="curve" smooth="yes"/>
      <point x="183" y="700"/>
      <point x="64" y="569"/>
      <point x="64" y="355" type="curve" smooth="yes"/>
      <point x="64" y="126"/>
      <point x="182" y="10"/>
      <point x="405" y="10" type="curve" smooth="yes"/>
      <point x="559" y="10"/>
      <point x="651" y="93"/>
      <point x="691" y="230" type="curve"/>
      <point x="623" y="251" type="line"/>
      <point x="585" y="136"/>
      <point x="530" y="74"/>
      <point x="409" y="74" type="curve" smooth="yes"/>
      <point x="227" y="74"/>
      <point x="157" y="160"/>
      <point x="157" y="355" type="curve" smooth="yes"/>
      <point x="157" y="541"/>
      <point x="228" y="640"/>
      <point x="426" y="640" type="curve" smooth="yes"/>
      <point x="531" y="640"/>
      <point x="588" y="617"/>
      <point x="618" y="599" type="curve"/>
      <point x="628" y="601"/>
      <point x="606" y="643"/>
      <point x="580" y="652" type="curve"/>
      <point x="580" y="490" type="line"/>
      <point x="670" y="490" type="line"/>
      <point x="670" y="648" type="line"/>
      <point x="643" y="664"/>
      <point x="550" y="700"/>
    </contour>
    <contour>
      <point x="358" y="790" type="line"/>
      <point x="358" y="678" type="line"/>
      <point x="368" y="669" type="line"/>
      <point x="368" y="51" type="line"/>
      <point x="358" y="37" type="line"/>
      <point x="358" y="-120" type="line"/>
      <point x="437" y="-120" type="line"/>
      <point x="437" y="39" type="line"/>
      <point x="427" y="47" type="line"/>
      <point x="427" y="672" type="line"/>
      <point x="437" y="680" type="line"/>
      <point x="437" y="790" type="line"/>
    </contour>
  </outline>
</glyph>
<glyph name="circumflex.uc" format="2">
  <advance width="530"/>
  <guideline x="266" y="796" angle="90" identifier="FjFYLzMN0T"/>
  <anchor x="266.5" y="740" name="_top"/>
  <outline>
    <contour>
      <point x="304.0" y="958" type="line"/>
      <point x="448.0" y="807" type="line"/>
      <point x="448.0" y="782" type="line"/>
      <point x="399.0" y="782" type="line"/>
      <point x="209.0" y="916" type="line"/>
      <point x="317.0" y="921" type="line"/>
      <point x="125.0" y="782" type="line"/>
      <point x="85.0" y="782" type="line"/>
      <point x="85.0" y="807" type="line"/>
      <point x="227.0" y="958" type="line"/>
    </contour>
  </outline>
</glyph>
<glyph name="eight.linprop" format="2">
  <advance width="664"/>
  <outline>
    <contour>
      <point x="332" y="735" type="curve" smooth="yes"/>
      <point x="184" y="735"/>
      <point x="99" y="665"/>
      <point x="99" y="554" type="curve" smooth="yes"/>
      <point x="99" y="451"/>
      <point x="161" y="395"/>
      <point x="279" y="382" type="curve"/>
      <point x="212" y="409" type="line"/>
      <point x="212" y="364" type="line"/>
      <point x="279" y="389" type="line"/>
      <point x="141" y="374"/>
      <point x="60" y="307"/>
      <point x="60" y="196" type="curve" smooth="yes"/>
      <point x="60" y="69"/>
      <point x="151" y="-10"/>
      <point x="332" y="-10" type="curve" smooth="yes"/>
      <point x="513" y="-10"/>
      <point x="604" y="69"/>
      <point x="604" y="196" type="curve" smooth="yes"/>
      <point x="604" y="307"/>
      <point x="522" y="374"/>
      <point x="385" y="389" type="curve"/>
      <point x="452" y="364" type="line"/>
      <point x="452" y="409" type="line"/>
      <point x="385" y="382" type="line"/>
      <point x="493" y="395"/>
      <point x="564" y="451"/>
      <point x="564" y="554" type="curve" smooth="yes"/>
      <point x="564" y="665"/>
      <point x="480" y="735"/>
    </contour>
    <contour>
      <point x="332" y="51" type="curve" smooth="yes"/>
      <point x="217" y="51"/>
      <point x="158" y="101"/>
      <point x="158" y="199" type="curve" smooth="yes"/>
      <point x="158" y="309"/>
      <point x="218" y="355"/>
      <point x="332" y="355" type="curve" smooth="yes"/>
      <point x="445" y="355"/>
      <point x="506" y="309"/>
      <point x="506" y="199" type="curve" smooth="yes"/>
      <point x="506" y="101"/>
      <point x="446" y="51"/>
    </contour>
    <contour>
      <point x="332" y="410" type="curve" smooth="yes"/>
      <point x="242" y="410"/>
      <point x="189" y="456"/>
      <point x="189" y="545" type="curve" smooth="yes"/>
      <point x="189" y="631"/>
      <point x="240" y="674"/>
      <point x="332" y="674" type="curve" smooth="yes"/>
      <point x="424" y="674"/>
      <point x="474" y="631"/>
      <point x="474" y="545" type="curve" smooth="yes"/>
      <point x="474" y="456"/>
      <point x="422" y="410"/>
    </contour>
  </outline>
</glyph>
<glyph name="eight.oldprop" format="2">
  <advance width="692"/>
  <outline>
    <contour>
      <point x="346" y="54" type="curve" smooth="yes"/>
      <point x="224" y="54"/>
      <point x="160" y="98"/>
      <point x="160" y="195" type="curve" smooth="yes"/>
      <point x="160" y="303"/>
      <point x="233" y="343"/>
      <point x="346" y="343" type="curve" smooth="yes"/>
      <point x="459.0" y="343.0"/>
      <point x="531" y="303"/>
      <point x="532" y="195" type="curve" smooth="yes"/>
      <point x="532" y="98"/>
      <point x="468" y="54"/>
    </contour>
    <contour>
      <point x="346" y="401" type="curve" smooth="yes"/>
      <point x="245.0" y="401.0"/>
      <point x="178" y="441"/>
      <point x="178" y="531" type="curve" smooth="yes"/>
      <point x="178" y="610"/>
      <point x="230" y="656"/>
      <point x="346" y="656" type="curve" smooth="yes"/>
      <point x="462" y="656"/>
      <point x="515" y="610"/>
      <point x="514" y="531" type="curve" smooth="yes"/>
      <point x="513" y="441"/>
      <point x="447" y="401"/>
    </contour>
    <contour>
      <point x="346" y="720.0" type="curve" smooth="yes"/>
      <point x="188" y="720"/>
      <point x="87" y="656"/>
      <point x="87" y="541.0" type="curve" smooth="yes"/>
      <point x="87" y="430"/>
      <point x="172" y="384"/>
      <point x="284" y="373" type="curve"/>
      <point x="220" y="395" type="line"/>
      <point x="220" y="352" type="line"/>
      <point x="284" y="375" type="line"/>
      <point x="160" y="361"/>
      <point x="62" y="307"/>
      <point x="62" y="190.0" type="curve" smooth="yes"/>
      <point x="62" y="61"/>
      <point x="165" y="-10"/>
      <point x="346" y="-10.0" type="curve" smooth="yes"/>
      <point x="526" y="-10"/>
      <point x="630" y="61"/>
      <point x="630" y="190.0" type="curve" smooth="yes"/>
      <point x="630" y="307"/>
      <point x="532" y="362"/>
      <point x="407" y="376" type="curve"/>
      <point x="473" y="352" type="line"/>
      <point x="473" y="395" type="line"/>
      <point x="407" y="373" type="line"/>
      <point x="520" y="384"/>
      <point x="604" y="430"/>
      <point x="604" y="541.0" type="curve" smooth="yes"/>
      <point x="604" y="656"/>
      <point x="504" y="720"/>
    </contour>
  </outline>
</glyph>
<glyph name="five.oldtab" format="2">
  <advance width="680"/>
  <outline>
    <contour>
      <point x="322" y="-90.0" type="curve"/>
      <point x="167" y="-90"/>
      <point x="90" y="-36.0"/>
      <point x="44" y="52.0" type="curve"/>
      <point x="112" y="95" type="line"/>
      <point x="161" y="17"/>
      <point x="208" y="-26"/>
      <point x="325" y="-26" type="curve"/>
      <point x="433" y="-26"/>
      <point x="500" y="45"/>
      <point x="500" y="173" type="curve" smooth="yes"/>
      <point x="500.0" y="291.0"/>
      <point x="441" y="337"/>
      <point x="347" y="338" type="curve" smooth="yes"/>
      <point x="281" y="339"/>
      <point x="222" y="313"/>
      <point x="177" y="251" type="curve"/>
      <point x="116" y="251" type="line"/>
      <point x="116" y="639.0" type="line"/>
      <point x="543" y="639.0" type="line"/>
      <point x="528" y="565" type="line"/>
      <point x="156" y="565" type="line"/>
      <point x="181" y="619.0" type="line"/>
      <point x="181" y="286" type="line"/>
      <point x="179" y="277"/>
      <point x="161" y="280"/>
      <point x="159" y="287" type="curve"/>
      <point x="204" y="356"/>
      <point x="282" y="396"/>
      <point x="373" y="396.0" type="curve" smooth="yes"/>
      <point x="511" y="396"/>
      <point x="594" y="316"/>
      <point x="594" y="182" type="curve" smooth="yes"/>
      <point x="594.0" y="1.0"/>
      <point x="478" y="-90"/>
    </contour>
  </outline>
</glyph>
<glyph name="four.linprop" format="2">
  <advance width="694"/>
  <outline>
    <contour>
      <point x="297" y="0" type="line"/>
      <point x="637" y="0" type="line"/>
      <point x="637" y="62" type="line"/>
      <point x="607" y="62" type="line" smooth="yes"/>
      <point x="555" y="62"/>
      <point x="517" y="69"/>
      <point x="517" y="98" type="curve" smooth="yes"/>
      <point x="517" y="710" type="line"/>
      <point x="426" y="710" type="line"/>
      <point x="430" y="698" type="line"/>
      <point x="430" y="98" type="line" smooth="yes"/>
      <point x="430" y="69"/>
      <point x="391" y="62"/>
      <point x="339" y="62" type="curve" smooth="yes"/>
      <point x="297" y="62" type="line"/>
    </contour>
    <contour>
      <point x="55" y="214" type="line"/>
      <point x="660" y="214" type="line"/>
      <point x="660" y="278" type="line"/>
      <point x="86" y="278" type="line"/>
      <point x="98" y="244" type="line"/>
      <point x="440" y="686" type="line"/>
      <point x="453" y="710" type="line"/>
      <point x="383" y="710" type="line"/>
      <point x="55" y="290" type="line"/>
    </contour>
  </outline>
</glyph>
<glyph name="four.lintab" format="2">
  <advance width="680"/>
  <outline>
    <contour>
      <point x="254" y="0" type="line"/>
      <point x="567" y="0" type="line"/>
      <point x="567" y="62" type="line"/>
      <point x="546" y="62" type="line" smooth="yes"/>
      <point x="494" y="62"/>
      <point x="456.0" y="69.0"/>
      <point x="456" y="98" type="curve" smooth="yes"/>
      <point x="456" y="710" type="line"/>
      <point x="365" y="710" type="line"/>
      <point x="369" y="698" type="line"/>
      <point x="369" y="98" type="line" smooth="yes"/>
      <point x="369.0" y="69.0"/>
      <point x="330" y="62"/>
      <point x="278" y="62" type="curve" smooth="yes"/>
      <point x="254" y="62" type="line"/>
    </contour>
    <contour>
      <point x="39" y="214" type="line"/>
      <point x="576" y="214" type="line"/>
      <point x="576" y="278" type="line"/>
      <point x="70" y="278" type="line"/>
      <point x="82" y="244" type="line"/>
      <point x="379" y="686" type="line"/>
      <point x="392" y="710" type="line"/>
      <point x="322" y="710" type="line"/>
      <point x="39" y="290" type="line"/>
    </contour>
  </outline>
</glyph>
<glyph name="four.midprop" format="2">
  <advance width="714"/>
  <outline>
    <contour>
      <point x="44" y="138" type="line"/>
      <point x="682" y="138" type="line"/>
      <point x="682" y="212" type="line"/>
      <point x="79" y="212" type="line"/>
      <point x="95" y="173" type="line"/>
      <point x="478" y="654" type="line"/>
      <point x="487" y="679.0" type="line"/>
      <point x="417" y="679.0" type="line"/>
      <point x="44" y="215" type="line"/>
    </contour>
    <contour>
      <point x="551" y="-43.0" type="line"/>
      <point x="551" y="679.0" type="line"/>
      <point x="456" y="679.0" type="line"/>
      <point x="464" y="667.0" type="line"/>
      <point x="464" y="-43.0" type="line"/>
    </contour>
  </outline>
</glyph>
<glyph name="four.oldtab" format="2">
  <advance width="680"/>
  <outline>
    <contour>
      <point x="54" y="98" type="line"/>
      <point x="632" y="98" type="line"/>
      <point x="632" y="172" type="line"/>
      <point x="89" y="172" type="line"/>
      <point x="105" y="133" type="line"/>
      <point x="448" y="614" type="line"/>
      <point x="457" y="639.0" type="line"/>
      <point x="387" y="639.0" type="line"/>
      <point x="54" y="175" type="line"/>
    </contour>
    <contour>
      <point x="521" y="-83.0" type="line"/>
      <point x="521" y="639.0" type="line"/>
      <point x="426" y="639.0" type="line"/>
      <point x="434" y="627.0" type="line"/>
      <point x="434" y="-83.0" type="line"/>
    </contour>
  </outline>
</glyph>
<glyph name="lslash" format="2">
  <advance width="433"/>
  <outline>
    <contour>
      <point x="49" y="241" type="line"/>
      <point x="402" y="510" type="line"/>
      <point x="402" y="582" type="line"/>
      <point x="49" y="313" type="line"/>
    </contour>
    <component base="l" xOffset="23"/>
  </outline>
</glyph>
<glyph name="nine.linprop" format="2">
  <advance width="661"/>
  <outline>
    <contour>
      <point x="138" y="43" type="line"/>
      <point x="364" y="66"/>
      <point x="496" y="165"/>
      <point x="496" y="430" type="curve" smooth="yes"/>
      <point x="496" y="614"/>
      <point x="430" y="671"/>
      <point x="311" y="671" type="curve" smooth="yes"/>
      <point x="197.0" y="671.0"/>
      <point x="146" y="598"/>
      <point x="146" y="485" type="curve" smooth="yes"/>
      <point x="146" y="379"/>
      <point x="191" y="315"/>
      <point x="305" y="315" type="curve" smooth="yes"/>
      <point x="402" y="315"/>
      <point x="466" y="366"/>
      <point x="511" y="461" type="curve"/>
      <point x="521" y="430" type="line"/>
      <point x="489" y="341"/>
      <point x="408" y="257"/>
      <point x="279" y="257" type="curve" smooth="yes"/>
      <point x="139" y="257"/>
      <point x="50" y="341"/>
      <point x="50" y="485" type="curve" smooth="yes"/>
      <point x="50" y="628"/>
      <point x="150" y="735"/>
      <point x="311" y="735" type="curve" smooth="yes"/>
      <point x="478.0" y="735.0"/>
      <point x="589" y="650"/>
      <point x="589" y="430" type="curve" smooth="yes"/>
      <point x="589" y="149"/>
      <point x="423" y="13"/>
      <point x="146" y="-15" type="curve"/>
    </contour>
  </outline>
</glyph>
<glyph name="nine.midprop" format="2">
  <advance width="692"/>
  <outline>
    <contour>
      <point x="117.0" y="-4.0" type="line"/>
      <point x="380.0" y="19.0"/>
      <point x="527.0" y="90.0"/>
      <point x="527.0" y="378.0" type="curve" smooth="yes"/>
      <point x="527.0" y="553.0"/>
      <point x="455" y="619"/>
      <point x="328.0" y="619.0" type="curve" smooth="yes"/>
      <point x="200.0" y="619.0"/>
      <point x="154.0" y="536.0"/>
      <point x="154.0" y="437.0" type="curve" smooth="yes"/>
      <point x="154.0" y="334.0"/>
      <point x="198.0" y="273.0"/>
      <point x="312.0" y="273.0" type="curve" smooth="yes"/>
      <point x="411.0" y="273.0"/>
      <point x="476.0" y="301.0"/>
      <point x="554.0" y="432.0" type="curve"/>
      <point x="555.0" y="390.0" type="line"/>
      <point x="494.0" y="268.0"/>
      <point x="408" y="215"/>
      <point x="296.0" y="215.0" type="curve" smooth="yes"/>
      <point x="141.0" y="215"/>
      <point x="60.0" y="293.0"/>
      <point x="60.0" y="437.0" type="curve" smooth="yes"/>
      <point x="60" y="576.0"/>
      <point x="155.0" y="683.0"/>
      <point x="330.0" y="683.0" type="curve" smooth="yes"/>
      <point x="517.0" y="683.0"/>
      <point x="618.0" y="587.0"/>
      <point x="619.0" y="378.0" type="curve" smooth="yes"/>
      <point x="619.0" y="79.0"/>
      <point x="440.0" y="-40.0"/>
      <point x="124.0" y="-67.0" type="curve"/>
    </contour>
  </outline>
</glyph>
<glyph name="peseta.proportional" format="2">
  <advance width="868"/>
  <outline>
    <contour>
      <point x="47" y="0" type="line"/>
      <point x="317" y="0" type="line"/>
      <point x="317" y="62" type="line"/>
      <point x="306" y="62" type="line"/>
      <point x="260" y="62"/>
      <point x="216" y="65"/>
      <point x="216" y="72" type="curve"/>
      <point x="216" y="250" type="line"/>
      <point x="281" y="250" type="line" smooth="yes"/>
      <point x="424.0" y="250.0"/>
      <point x="518" y="340"/>
      <point x="518" y="486" type="curve" smooth="yes"/>
      <point x="518" y="632"/>
      <point x="429.0" y="710.0"/>
      <point x="287" y="710" type="curve" smooth="yes"/>
      <point x="47" y="710" type="line"/>
      <point x="47" y="648" type="line"/>
      <point x="59" y="648" type="line"/>
      <point x="106" y="648"/>
      <point x="134.0" y="641.0"/>
      <point x="134" y="612" type="curve" smooth="yes"/>
      <point x="134" y="98" type="line" smooth="yes"/>
      <point x="134" y="69"/>
      <point x="106" y="62"/>
      <point x="59" y="62" type="curve"/>
      <point x="47" y="62" type="line"/>
    </contour>
    <contour>
      <point x="288" y="649" type="line" smooth="yes"/>
      <point x="381.0" y="649.0"/>
      <point x="437" y="610"/>
      <point x="437" y="485" type="curve" smooth="yes"/>
      <point x="437" y="360"/>
      <point x="380.0" y="311.0"/>
      <point x="282" y="311" type="curve" smooth="yes"/>
      <point x="216" y="311" type="line"/>
      <point x="216" y="649" type="line"/>
    </contour>
    <contour>
      <point x="668" y="557" type="line"/>
      <point x="617" y="539" type="line"/>
      <point x="617" y="90" type="line" smooth="yes"/>
      <point x="617" y="9"/>
      <point x="678" y="-12"/>
      <point x="747" y="-12" type="curve" smooth="yes"/>
      <point x="783" y="-12"/>
      <point x="819" y="-8"/>
      <point x="832" y="-5" type="curve"/>
      <point x="832" y="59" type="line"/>
      <point x="826" y="58"/>
      <point x="790" y="54"/>
      <point x="765" y="54" type="curve" smooth="yes"/>
      <point x="720" y="54"/>
      <point x="695.0" y="66.0"/>
      <point x="695" y="102" type="curve" smooth="yes"/>
      <point x="695" y="710" type="line"/>
      <point x="632" y="710" type="line"/>
      <point x="632" y="615" type="line" smooth="yes"/>
      <point x="632" y="554"/>
      <point x="599" y="545"/>
      <point x="549" y="545" type="curve" smooth="yes"/>
      <point x="493" y="545" type="line"/>
      <point x="493" y="496" type="line"/>
      <point x="833" y="496" type="line"/>
      <point x="833" y="557" type="line"/>
    </contour>
  </outline>
</glyph>
<glyph name="seven.midprop" format="2">
  <advance width="692"/>
  <outline>
    <contour>
      <point x="290" y="592" type="line" smooth="yes"/>
      <point x="186.0" y="592.0"/>
      <point x="160" y="587"/>
      <point x="155" y="551" type="curve" smooth="yes"/>
      <point x="142" y="449" type="line"/>
      <point x="80" y="449" type="line"/>
      <point x="80" y="667.0" type="line"/>
      <point x="648" y="667.0" type="line"/>
      <point x="648" y="591" type="line"/>
      <point x="493" y="424"/>
      <point x="376" y="285"/>
      <point x="354" y="-49.0" type="curve"/>
      <point x="254" y="-49.0" type="line"/>
      <point x="283" y="283"/>
      <point x="480" y="515"/>
      <point x="601" y="606" type="curve"/>
      <point x="607" y="592" type="line"/>
    </contour>
  </outline>
</glyph>
<glyph name="seven.oldprop" format="2">
  <advance width="692"/>
  <outline>
    <contour>
      <point x="290" y="564" type="line" smooth="yes"/>
      <point x="186.0" y="564.0"/>
      <point x="160" y="559"/>
      <point x="155" y="523" type="curve" smooth="yes"/>
      <point x="142" y="421" type="line"/>
      <point x="80" y="421" type="line"/>
      <point x="80" y="639.0" type="line"/>
      <point x="648" y="639.0" type="line"/>
      <point x="648" y="563" type="line"/>
      <point x="493" y="396"/>
      <point x="376" y="257"/>
      <point x="354" y="-77.0" type="curve"/>
      <point x="254" y="-77.0" type="line"/>
      <point x="283" y="255"/>
      <point x="480" y="487"/>
      <point x="601" y="578" type="curve"/>
      <point x="607" y="564" type="line"/>
    </contour>
  </outline>
</glyph>
<glyph name="six.den" format="2">
  <advance width="513"/>
  <outline>
    <contour>
      <point x="397" y="384" type="line"/>
      <point x="229" y="370"/>
      <point x="155" y="318"/>
      <point x="155" y="173" type="curve" smooth="yes"/>
      <point x="155" y="73"/>
      <point x="199" y="44"/>
      <point x="260" y="44" type="curve" smooth="yes"/>
      <point x="318" y="44"/>
      <point x="356" y="77"/>
      <point x="356" y="141" type="curve" smooth="yes"/>
      <point x="356" y="199"/>
      <point x="329" y="229"/>
      <point x="274" y="229" type="curve" smooth="yes"/>
      <point x="212" y="229"/>
      <point x="169" y="191"/>
      <point x="146" y="147" type="curve"/>
      <point x="138" y="184" type="line"/>
      <point x="162" y="231"/>
      <point x="213" y="279"/>
      <point x="305" y="279" type="curve" smooth="yes"/>
      <point x="384.0" y="279.0"/>
      <point x="447" y="235"/>
      <point x="447" y="144" type="curve" smooth="yes"/>
      <point x="447" y="45"/>
      <point x="368" y="-6"/>
      <point x="260" y="-6" type="curve" smooth="yes"/>
      <point x="149" y="-6"/>
      <point x="66" y="42"/>
      <point x="66" y="173" type="curve" smooth="yes"/>
      <point x="66" y="328"/>
      <point x="168" y="417"/>
      <point x="393" y="436" type="curve"/>
    </contour>
  </outline>
</glyph>
<glyph name="six.lintab" format="2">
  <advance width="680"/>
  <outline>
    <contour>
      <point x="483" y="682" type="line"/>
      <point x="261" y="659"/>
      <point x="144" y="562"/>
      <point x="144" y="295" type="curve" smooth="yes"/>
      <point x="144" y="111"/>
      <point x="198" y="54"/>
      <point x="311" y="54" type="curve" smooth="yes"/>
      <point x="418" y="54"/>
      <point x="459" y="134"/>
      <point x="459" y="240" type="curve" smooth="yes"/>
      <point x="459" y="342"/>
      <point x="425" y="410"/>
      <point x="317" y="410" type="curve" smooth="yes"/>
      <point x="225.0" y="410.0"/>
      <point x="171" y="357"/>
      <point x="128" y="264" type="curve"/>
      <point x="118" y="295" type="line"/>
      <point x="147" y="379"/>
      <point x="219" y="468"/>
      <point x="342" y="468" type="curve" smooth="yes"/>
      <point x="477" y="468"/>
      <point x="554" y="384"/>
      <point x="554" y="240" type="curve" smooth="yes"/>
      <point x="554" y="97"/>
      <point x="465" y="-10"/>
      <point x="311" y="-10" type="curve" smooth="yes"/>
      <point x="150" y="-10"/>
      <point x="50" y="76"/>
      <point x="50" y="295" type="curve" smooth="yes"/>
      <point x="50" y="579"/>
      <point x="202" y="712"/>
      <point x="474" y="740" type="curve"/>
    </contour>
  </outline>
</glyph>
<glyph name="three.lintab" format="2">
  <advance width="680"/>
  <outline>
    <contour>
      <point x="321" y="387" type="line"/>
      <point x="520" y="385"/>
      <point x="589" y="317"/>
      <point x="589" y="206" type="curve" smooth="yes"/>
      <point x="589" y="65"/>
      <point x="481" y="-11"/>
      <point x="325" y="-11" type="curve" smooth="yes"/>
      <point x="176" y="-11"/>
      <point x="107" y="54"/>
      <point x="61" y="153" type="curve"/>
      <point x="127" y="187" type="line"/>
      <point x="169" y="108"/>
      <point x="220" y="54"/>
      <point x="325" y="54" type="curve" smooth="yes"/>
      <point x="430" y="54"/>
      <point x="495" y="102"/>
      <point x="495" y="204" type="curve" smooth="yes"/>
      <point x="495.0" y="301.0"/>
      <point x="449" y="349"/>
      <point x="316" y="349" type="curve" smooth="yes"/>
      <point x="207" y="349" type="line"/>
      <point x="207" y="411" type="line"/>
      <point x="303" y="411" type="line" smooth="yes"/>
      <point x="408" y="411"/>
      <point x="473" y="452"/>
      <point x="473" y="552" type="curve" smooth="yes"/>
      <point x="473" y="639"/>
      <point x="419" y="671"/>
      <point x="331" y="671" type="curve" smooth="yes"/>
      <point x="240" y="671"/>
      <point x="193" y="642"/>
      <point x="165" y="625" type="curve"/>
      <point x="163" y="632"/>
      <point x="180" y="654"/>
      <point x="210" y="658" type="curve"/>
      <point x="210" y="538" type="line"/>
      <point x="120" y="538" type="line"/>
      <point x="120" y="673" type="line"/>
      <point x="161" y="702"/>
      <point x="240" y="735"/>
      <point x="342" y="735" type="curve" smooth="yes"/>
      <point x="481.0" y="735.0"/>
      <point x="563" y="673"/>
      <point x="563" y="569" type="curve"/>
      <point x="563" y="439"/>
      <point x="451" y="380"/>
      <point x="304" y="378" type="curve"/>
      <point x="416" y="405" type="line"/>
      <point x="416" y="367" type="line"/>
    </contour>
  </outline>
</glyph>
<glyph name="two.lintab" format="2">
  <advance width="680"/>
  <outline>
    <contour>
      <point x="337" y="68" type="line" smooth="yes"/>
      <point x="424" y="68"/>
      <point x="459" y="75"/>
      <point x="462" y="109" type="curve" smooth="yes"/>
      <point x="472" y="216" type="line"/>
      <point x="539" y="216" type="line"/>
      <point x="539" y="0" type="line"/>
      <point x="45" y="0" type="line"/>
      <point x="45" y="76" type="line"/>
      <point x="294" y="284"/>
      <point x="423" y="358"/>
      <point x="423" y="532" type="curve" smooth="yes"/>
      <point x="423" y="624"/>
      <point x="379" y="671"/>
      <point x="285" y="671" type="curve" smooth="yes"/>
      <point x="204" y="671"/>
      <point x="145" y="645"/>
      <point x="111" y="607" type="curve"/>
      <point x="115" y="634"/>
      <point x="155" y="678"/>
      <point x="155" y="655" type="curve" smooth="yes"/>
      <point x="155" y="517" type="line"/>
      <point x="65" y="517" type="line"/>
      <point x="65" y="655" type="line"/>
      <point x="98" y="689"/>
      <point x="186" y="735"/>
      <point x="285" y="735" type="curve" smooth="yes"/>
      <point x="441" y="735"/>
      <point x="517" y="663"/>
      <point x="517" y="537" type="curve" smooth="yes"/>
      <point x="517.0" y="347.0"/>
      <point x="308" y="217"/>
      <point x="79" y="34" type="curve"/>
      <point x="69" y="50"/>
      <point x="66" y="62"/>
      <point x="75" y="68" type="curve"/>
    </contour>
  </outline>
</glyph>
<glyph name="two.midprop" format="2">
  <advance width="692"/>
  <outline>
    <contour>
      <point x="424" y="71" type="line" smooth="yes"/>
      <point x="516.0" y="71.0"/>
      <point x="535" y="77"/>
      <point x="541" y="114" type="curve" smooth="yes"/>
      <point x="554" y="197" type="line"/>
      <point x="613" y="197" type="line"/>
      <point x="613" y="0" type="line"/>
      <point x="73" y="0" type="line"/>
      <point x="73" y="79" type="line"/>
      <point x="348" y="243"/>
      <point x="486" y="309"/>
      <point x="486" y="470" type="curve" smooth="yes"/>
      <point x="486" y="579"/>
      <point x="422" y="619"/>
      <point x="325" y="619" type="curve" smooth="yes"/>
      <point x="233.0" y="619.0"/>
      <point x="169" y="593"/>
      <point x="134" y="559" type="curve"/>
      <point x="138" y="582"/>
      <point x="153" y="610"/>
      <point x="179" y="607" type="curve"/>
      <point x="179" y="465" type="line"/>
      <point x="89" y="465" type="line"/>
      <point x="89" y="616" type="line"/>
      <point x="122" y="639"/>
      <point x="208" y="683"/>
      <point x="330" y="683" type="curve" smooth="yes"/>
      <point x="489.0" y="683.0"/>
      <point x="580" y="612"/>
      <point x="580" y="470" type="curve" smooth="yes"/>
      <point x="580" y="284"/>
      <point x="361" y="183"/>
      <point x="106" y="40" type="curve"/>
      <point x="83" y="50"/>
      <point x="80" y="65"/>
      <point x="102" y="71" type="curve"/>
    </contour>
  </outline>
</glyph>
<glyph name="zero.oldprop" format="2">
  <advance width="693"/>
  <outline>
    <contour>
      <point x="346" y="-11" type="curve" smooth="yes"/>
      <point x="513" y="-11"/>
      <point x="635" y="97"/>
      <point x="635" y="319" type="curve" smooth="yes"/>
      <point x="635" y="541"/>
      <point x="513" y="649"/>
      <point x="346" y="649" type="curve" smooth="yes"/>
      <point x="179" y="649"/>
      <point x="58" y="541"/>
      <point x="58" y="319" type="curve" smooth="yes"/>
      <point x="58" y="97"/>
      <point x="179" y="-11"/>
    </contour>
    <contour>
      <point x="346" y="55" type="curve" smooth="yes"/>
      <point x="227" y="55"/>
      <point x="154" y="134"/>
      <point x="154" y="319" type="curve" smooth="yes"/>
      <point x="154" y="504"/>
      <point x="227" y="583"/>
      <point x="346" y="583" type="curve" smooth="yes"/>
      <point x="466" y="583"/>
      <point x="539" y="504"/>
      <point x="539" y="319" type="curve" smooth="yes"/>
      <point x="539" y="134"/>
      <point x="466" y="55"/>
    </contour>
  </outline>
</glyph>
<glyph name="zero.prop" format="2">
  <advance width="701"/>
  <outline>
    <contour>
      <point x="639" y="319" type="curve" smooth="yes"/>
      <point x="639" y="541"/>
      <point x="517" y="649"/>
      <point x="350" y="649" type="curve" smooth="yes"/>
      <point x="183" y="649"/>
      <point x="62" y="541"/>
      <point x="62" y="319" type="curve" smooth="yes"/>
      <point x="62" y="97"/>
      <point x="183" y="-11"/>
      <point x="350" y="-11" type="curve" smooth="yes"/>
      <point x="517" y="-11"/>
      <point x="639" y="97"/>
    </contour>
    <contour>
      <point x="158" y="319" type="curve" smooth="yes"/>
      <point x="158" y="504"/>
      <point x="231" y="583"/>
      <point x="350" y="583" type="curve" smooth="yes"/>
      <point x="470" y="583"/>
      <point x="543" y="504"/>
      <point x="543" y="319" type="curve" smooth="yes"/>
      <point x="543" y="134"/>
      <point x="470" y="55"/>
      <point x="350" y="55" type="curve" smooth="yes"/>
      <point x="231" y="55"/>
      <point x="158" y="134"/>
    </contour>
  </outline>
</glyph>
